# xmcd CD database file generated by Grip 3.0.5
# 
# Track frame offsets:
#       150
#       16713
#       35890
#       48725
#       64343
#       76523
#       91813
#       108400
#       122810
#       137565
#       152463
#       172975
#       194145
# 
# Disc length: 2751 seconds
# 
# Revision: 2
# Processed by: cddbd v1.4PL0 Copyright (c) Steve Scherf et al.
# Submitted via: Grip 3.0.5
# 
DISCID=a60abd0d
DTITLE=Kim Wilson - Tigerman
DYEAR=1993
DGENRE=Blues
TTITLE0=Tiger Man
TTITLE1=Don't Touch Me
TTITLE2=The Hustle is on
TTITLE3=She Moves Me
TTITLE4=Hush Oh Hush
TTITLE5=If I Should Lose You
TTITLE6=Hunch Rhythm
TTITLE7=When The Lights Go Out
TTITLE8=You Got Me
TTITLE9=Come Back Baby
TTITLE10=Boogie All Night
TTITLE11=Trust My Baby
TTITLE12=Reel Eleven, Take One
EXTD=
EXTT0=
EXTT1=
EXTT2=
EXTT3=
EXTT4=
EXTT5=
EXTT6=
EXTT7=
EXTT8=
EXTT9=
EXTT10=
EXTT11=
EXTT12=
PLAYORDER=
